# Blender v2.79 (sub 0) OBJ File: ''
# www.blender.org
mtllib cube_1_texture_meter_units.mtl
o Cube_Cube.000
v -0.025000 -0.025000 -0.025000
v -0.025000 -0.025000 0.025000
v -0.025000 0.025000 0.025000
v -0.025000 0.025000 -0.025000
v 0.025000 0.025000 0.025000
v 0.025000 0.025000 -0.025000
v 0.025000 -0.025000 0.025000
v 0.025000 -0.025000 -0.025000
v -0.025000 -0.025000 -0.025000
v -0.025000 -0.025000 0.025000
v -0.025000 0.025000 0.025000
v -0.025000 0.025000 -0.025000
v 0.025000 0.025000 0.025000
v 0.025000 0.025000 -0.025000
v 0.025000 -0.025000 0.025000
v 0.025000 -0.025000 -0.025000
v -0.025000 -0.025000 -0.025000
v -0.025000 -0.025000 0.025000
v -0.025000 0.025000 0.025000
v -0.025000 0.025000 -0.025000
v 0.025000 0.025000 0.025000
v 0.025000 0.025000 -0.025000
v 0.025000 -0.025000 0.025000
v 0.025000 -0.025000 -0.025000
vt 0.143444 0.679879
vt 0.143444 0.802677
vt 0.020647 0.802677
vt 0.020647 0.679879
vt 0.273920 0.844122
vt 0.273920 0.970640
vt 0.147402 0.970640
vt 0.147402 0.844122
vt 0.483632 0.676061
vt 0.483632 0.796652
vt 0.363042 0.796652
vt 0.363042 0.676061
vt 0.304476 0.673387
vt 0.304476 0.788867
vt 0.188997 0.788867
vt 0.188997 0.673387
vt 0.302987 0.844541
vt 0.429181 0.844541
vt 0.429181 0.970735
vt 0.302987 0.970735
vt 0.119171 0.995197
vt 0.002723 0.995197
vt 0.002723 0.878749
vt 0.119171 0.878749
vn -1.0000 0.0000 0.0000
vn 0.0000 1.0000 0.0000
vn 1.0000 0.0000 0.0000
vn 0.0000 -1.0000 0.0000
vn 0.0000 0.0000 -1.0000
vn 0.0000 0.0000 1.0000
usemtl None.001
s 1
f 1/1/1 2/2/1 3/3/1
f 1/1/1 3/3/1 4/4/1
f 12/5/2 11/6/2 5/7/2
f 12/5/2 5/7/2 6/8/2
f 14/9/3 7/11/3 8/12/3
f 14/9/3 13/10/3 7/11/3
f 16/13/4 10/15/4 9/16/4
f 16/13/4 15/14/4 10/15/4
f 20/17/5 24/19/5 17/20/5
f 20/17/5 22/18/5 24/19/5
f 21/21/6 18/23/6 23/24/6
f 21/21/6 19/22/6 18/23/6
