# Blender v2.79 (sub 0) OBJ File: 'g1_hand_marker_5_faces_new_holes.blend'
# www.blender.org
mtllib cube_2_texture_meter_units.mtl
o Cube
v -0.025000 -0.025000 -0.025000
v -0.025000 -0.025000 0.025000
v -0.025000 0.025000 -0.025000
v -0.025000 0.025000 0.025000
v 0.025000 -0.025000 -0.025000
v 0.025000 -0.025000 0.025000
v 0.025000 0.025000 -0.025000
v 0.025000 0.025000 0.025000
vt 0.666776 0.994838
vt 0.336671 0.506530
vt 0.666776 0.502624
vt 0.334332 0.501095
vt -0.000474 0.002226
vt 0.334332 0.002226
vt 0.332720 0.984541
vt 0.001724 0.503155
vt 0.332720 0.505108
vt 0.996716 0.988555
vt 0.669426 0.505016
vt 0.998669 0.503062
vt 0.661805 0.496104
vt 0.338321 0.009295
vt 0.338321 0.494151
vt 0.330250 0.499191
vt 0.665949 -0.003131
vt 0.665949 0.499191
vt 0.336671 0.998744
vt -0.000474 0.501095
vt 0.001724 0.982588
vt 0.667473 0.990509
vt 0.661805 0.011248
vt 0.330250 -0.003131
vn -1.0000 0.0000 0.0000
vn 0.0000 1.0000 0.0000
vn 1.0000 0.0000 0.0000
vn 0.0000 -1.0000 0.0000
vn 0.0000 0.0000 -1.0000
vn 0.0000 0.0000 1.0000
usemtl None
s off
f 2/1/1 3/2/1 1/3/1
f 4/4/2 7/5/2 3/6/2
f 8/7/3 5/8/3 7/9/3
f 6/10/4 1/11/4 5/12/4
f 7/13/5 1/14/5 3/15/5
f 4/16/6 6/17/6 8/18/6
f 2/1/1 4/19/1 3/2/1
f 4/4/2 8/20/2 7/5/2
f 8/7/3 6/21/3 5/8/3
f 6/10/4 2/22/4 1/11/4
f 7/13/5 5/23/5 1/14/5
f 4/16/6 2/24/6 6/17/6
